<?xml version="1.0" encoding="utf-8"?>
<!-- Generator: Adobe Illustrator 24.1.2, SVG Export Plug-In . SVG Version: 6.00 Build 0)  -->
<svg version="1.1" id="Warstwa_1" xmlns="http://www.w3.org/2000/svg" xmlns:xlink="http://www.w3.org/1999/xlink" x="0px" y="0px"
	 viewBox="0 0 64 64" style="enable-background:new 0 0 64 64;" xml:space="preserve">
<g>
	<g>
		<path d="M32,0C14.36,0,0,14.36,0,32s14.36,32,32,32s32-14.36,32-32S49.64,0,32,0z M46.97,33.95L24.32,47.03
			c-0.35,0.2-0.74,0.3-1.13,0.3c-0.39,0-0.78-0.1-1.13-0.3c-0.7-0.4-1.13-1.14-1.13-1.95V18.92c0-0.8,0.43-1.55,1.13-1.95
			c0.7-0.4,1.56-0.4,2.25,0l22.65,13.08c0.7,0.4,1.13,1.15,1.13,1.95S47.67,33.55,46.97,33.95z"/>
	</g>
</g>
</svg>
