<?xml version="1.0" encoding="utf-8"?>
<!-- Generator: Adobe Illustrator 24.1.2, SVG Export Plug-In . SVG Version: 6.00 Build 0)  -->
<svg version="1.1" id="Warstwa_1" xmlns="http://www.w3.org/2000/svg" xmlns:xlink="http://www.w3.org/1999/xlink" x="0px" y="0px"
	 viewBox="0 0 64 64" enable-background="new 0 0 64 64" xml:space="preserve">
<g>
	<g>
		<path d="M53.9,50c1.2,1.2,1.2,3.1,0,4.2c-0.6,0.6-1.3,0.9-2.1,0.9s-1.5-0.3-2.1-0.9L31.8,36.4L13.9,54.2c-0.6,0.6-1.3,0.9-2.1,0.9
			s-1.5-0.3-2.1-0.9c-1.2-1.2-1.2-3.1,0-4.2l17.9-17.9L9.7,14.2c-1.2-1.2-1.2-3.1,0-4.2c1.2-1.2,3.1-1.2,4.2,0l17.9,17.9L49.7,10
			c1.2-1.2,3.1-1.2,4.2,0c1.2,1.2,1.2,3.1,0,4.2L36,32.1L53.9,50z"/>
	</g>
</g>
</svg>
