<?xml version="1.0" encoding="utf-8"?>
<!-- Generator: Adobe Illustrator 24.1.2, SVG Export Plug-In . SVG Version: 6.00 Build 0)  -->
<svg version="1.1" id="Warstwa_1" xmlns="http://www.w3.org/2000/svg" xmlns:xlink="http://www.w3.org/1999/xlink" x="0px" y="0px"
	 viewBox="0 0 64 64" enable-background="new 0 0 64 64" xml:space="preserve">
<g>
	<g>
		<g>
			<g>
				<path d="M32,0C14.35,0,0,14.36,0,32c0,17.65,14.35,32,32,32c17.64,0,32-14.35,32-32C64,14.36,49.64,0,32,0z M27.17,47.89V30.03
					c0-2.66,2.17-4.83,4.83-4.83s4.83,2.17,4.83,4.83v17.86c0,2.66-2.17,4.83-4.83,4.83S27.17,50.55,27.17,47.89z M36.73,17.07
					c-0.05,0.27-0.15,0.59-0.28,0.9c-0.09,0.23-0.23,0.5-0.41,0.79c-0.21,0.31-0.41,0.55-0.63,0.76c-0.9,0.9-2.14,1.42-3.41,1.42
					s-2.52-0.52-3.41-1.41c-0.22-0.22-0.41-0.45-0.59-0.71c-0.2-0.3-0.35-0.58-0.46-0.87c-0.14-0.34-0.23-0.63-0.28-0.93
					c-0.06-0.26-0.09-0.58-0.09-0.91c0-0.32,0.03-0.65,0.1-0.96c0.04-0.24,0.13-0.54,0.26-0.86c0.12-0.3,0.27-0.58,0.44-0.85
					c0.21-0.3,0.4-0.53,0.62-0.74c0.9-0.9,2.14-1.42,3.41-1.42s2.51,0.52,3.41,1.42c0.21,0.21,0.41,0.45,0.59,0.71
					c0.22,0.34,0.36,0.61,0.47,0.89c0.11,0.27,0.21,0.58,0.26,0.89c0.06,0.28,0.1,0.6,0.1,0.92S36.79,16.75,36.73,17.07z"/>
			</g>
		</g>
	</g>
</g>
</svg>
