<?xml version="1.0" encoding="utf-8"?>
<!-- Generator: Adobe Illustrator 24.1.2, SVG Export Plug-In . SVG Version: 6.00 Build 0)  -->
<svg version="1.1" id="Warstwa_1" xmlns="http://www.w3.org/2000/svg" xmlns:xlink="http://www.w3.org/1999/xlink" x="0px" y="0px"
	 viewBox="0 0 64 64" style="enable-background:new 0 0 64 64;" xml:space="preserve">
<g>
	<path d="M51.22,20.98l-34.95,42.2C15.83,63.71,15.18,64,14.53,64c-0.39,0-0.78-0.1-1.14-0.31c-0.96-0.56-1.37-1.73-0.98-2.77
		L23.22,32.6H14.6c-0.81,0-1.55-0.43-1.96-1.13c-0.4-0.7-0.4-1.56,0-2.26L28.88,1.13C29.28,0.43,30.03,0,30.84,0h17.94
		c0.83,0,1.59,0.46,1.99,1.18c0.4,0.73,0.36,1.62-0.09,2.31l-8.92,13.77h7.72c0.88,0,1.68,0.51,2.05,1.3
		C51.9,19.36,51.78,20.3,51.22,20.98z"/>
</g>
</svg>
