<?xml version="1.0" encoding="utf-8"?>
<!-- Generator: Adobe Illustrator 24.1.2, SVG Export Plug-In . SVG Version: 6.00 Build 0)  -->
<svg version="1.1" id="Warstwa_1" xmlns="http://www.w3.org/2000/svg" xmlns:xlink="http://www.w3.org/1999/xlink" x="0px" y="0px"
	 viewBox="0 0 64 64" style="enable-background:new 0 0 64 64;" xml:space="preserve">
<g>
	<path d="M54.52,44.01c-0.28,8.62-6.04,16.8-14.01,19.88C40.27,63.98,40.05,64,39.88,64c-0.06,0-0.12,0-0.16,0
		c-0.04,0-0.1-0.01-0.17-0.01c-0.61,0-1.16-0.37-1.38-0.94c-0.22-0.57-0.06-1.21,0.39-1.62c2.44-2.22,3.68-4.96,3.78-8.36
		c0.05-1.5-0.11-3.01-0.5-4.62c-0.62,1.17-1.57,2.28-3.04,3.19c-0.5,0.31-1.12,0.3-1.61-0.03c-0.48-0.33-0.73-0.91-0.63-1.48
		c1.25-7,0.47-11.83-2.64-15.47c-0.2,2.42-1.26,4.57-3.15,6.41c-1.3,1.27-2.7,2.51-4.29,3.81c-2.54,2.08-4.09,4.88-4.38,7.87
		c-0.28,2.93,0.64,5.85,2.6,8.23c0.44,0.53,0.45,1.3,0.03,1.85c-0.42,0.55-1.17,0.72-1.8,0.42c-0.11-0.05-0.22-0.11-0.34-0.16
		c-0.28-0.13-0.58-0.26-0.88-0.43C14.08,58.34,9.97,51.5,9.51,42.35c-0.31-6.3,1.1-12.63,4.57-20.52c0.21-0.47,0.58-0.69,0.73-0.78
		l0.03-0.02c0.48-0.34,1.1-0.36,1.61-0.06c0.5,0.3,0.78,0.87,0.71,1.45c-0.59,4.77,0.09,8.17,2.23,10.76
		c-0.04-0.27-0.08-0.55-0.12-0.83c-1.1-8.6-0.19-15.52,2.85-21.78c1.79-3.68,4.27-6.79,7.35-9.22c0.42-0.33,0.84-0.62,1.26-0.89
		l0.08-0.05c0.27-0.18,0.52-0.25,0.69-0.3c0.03-0.01,0.07-0.02,0.11-0.03c0.48-0.16,1.01-0.05,1.4,0.27
		c0.39,0.32,0.59,0.82,0.52,1.32c-0.06,0.42-0.11,0.83-0.17,1.24c-0.12,0.86-0.23,1.67-0.3,2.48c-0.39,4.39,0.99,8.16,4.1,11.22
		c1.83,1.8,3.81,3.54,5.73,5.22c1.12,0.99,2.28,2,3.41,3.03C51.99,30.05,54.76,36.5,54.52,44.01z"/>
</g>
</svg>
