<?xml version="1.0" encoding="utf-8"?>
<!-- Generator: Adobe Illustrator 24.1.2, SVG Export Plug-In . SVG Version: 6.00 Build 0)  -->
<svg version="1.1" id="Warstwa_1" xmlns="http://www.w3.org/2000/svg" xmlns:xlink="http://www.w3.org/1999/xlink" x="0px" y="0px"
	 viewBox="0 0 64 64" style="enable-background:new 0 0 64 64;" xml:space="preserve">
<g>
	<g>
		<g>
			<g>
				<path d="M34.7,12.7v38.7c0,0.8-0.4,1.5-1.1,1.9c-0.4,0.2-0.7,0.3-1.1,0.3c-0.4,0-0.7-0.1-1.1-0.3l-19-10.5H2.2
					c-1.2,0-2.2-1-2.2-2.2V23.5c0-1.2,1-2.2,2.2-2.2h10.2l19-10.5c0.7-0.4,1.5-0.4,2.2,0C34.3,11.1,34.7,11.9,34.7,12.7z"/>
			</g>
		</g>
	</g>
	<g>
		<g>
			<g>
				<path d="M45.5,43.6c-0.7,0.7-1.7,1.2-2.8,1.2c-1.1,0-2.1-0.4-2.8-1.2c-0.7-0.7-1.2-1.7-1.2-2.8c0-1.1,0.4-2.1,1.2-2.8
					c3.3-3.3,3.3-8.6,0-11.9c-0.7-0.7-1.2-1.7-1.2-2.8c0-1.1,0.4-2.1,1.2-2.8c1.5-1.5,4.1-1.5,5.6,0C51.9,26.8,51.9,37.2,45.5,43.6z
					"/>
			</g>
		</g>
		<g>
			<g>
				<path d="M55.6,52.4c-0.7,0.7-1.7,1.2-2.8,1.2c-1.1,0-2.1-0.4-2.8-1.2c-0.7-0.7-1.2-1.7-1.2-2.8c0-1.1,0.4-2.1,1.2-2.8
					c8.2-8.2,8.2-21.5,0-29.6c-0.7-0.7-1.2-1.7-1.2-2.8c0-1.1,0.4-2.1,1.2-2.8c1.5-1.5,4.1-1.5,5.6,0C66.8,22.8,66.8,41.2,55.6,52.4
					z"/>
			</g>
		</g>
	</g>
</g>
</svg>
