<?xml version="1.0" encoding="utf-8"?>
<!-- Generator: Adobe Illustrator 24.1.2, SVG Export Plug-In . SVG Version: 6.00 Build 0)  -->
<svg version="1.1" id="Warstwa_1" xmlns="http://www.w3.org/2000/svg" xmlns:xlink="http://www.w3.org/1999/xlink" x="0px" y="0px"
	 viewBox="0 0 64 64" enable-background="new 0 0 64 64" xml:space="preserve">
<g>
	<g>
		<g>
			<path d="M34.81,12.59v38.82c0,0.79-0.42,1.53-1.1,1.93c-0.35,0.2-0.74,0.31-1.14,0.31c-0.37,0-0.74-0.1-1.08-0.29L12.45,42.8
				H2.24C1,42.8,0,41.8,0,40.56V23.44c0-1.24,1-2.24,2.24-2.24h10.21l19.04-10.57c0.69-0.38,1.54-0.37,2.22,0.03
				C34.39,11.06,34.81,11.79,34.81,12.59z"/>
		</g>
	</g>
</g>
<g>
	<g>
		<g>
			<path d="M40.68,43.88c-0.57,0-1.15-0.22-1.58-0.66c-0.87-0.87-0.87-2.29,0-3.17c2.16-2.16,3.34-5.02,3.34-8.06
				c0-3.04-1.19-5.91-3.34-8.06c-0.87-0.87-0.87-2.29,0-3.16c0.87-0.87,2.29-0.87,3.17,0c3,3,4.65,6.99,4.65,11.23
				c0,4.24-1.65,8.23-4.65,11.23C41.83,43.66,41.25,43.88,40.68,43.88z"/>
			<path d="M40.68,44.88c-0.86,0-1.68-0.34-2.29-0.95c-1.26-1.26-1.26-3.32,0-4.58c1.97-1.97,3.05-4.58,3.05-7.36
				c0-2.78-1.08-5.39-3.05-7.36c-1.26-1.26-1.26-3.32,0-4.58c1.26-1.26,3.32-1.26,4.58,0c3.19,3.19,4.95,7.43,4.95,11.94
				c0,4.51-1.76,8.75-4.95,11.94C42.36,44.55,41.55,44.88,40.68,44.88z M40.68,21.11c-0.32,0-0.63,0.12-0.88,0.36
				c-0.48,0.48-0.48,1.27,0,1.75c2.34,2.35,3.64,5.46,3.64,8.77c0,3.31-1.29,6.43-3.64,8.77c-0.48,0.48-0.48,1.27,0,1.75
				c0.47,0.47,1.28,0.47,1.75,0c2.81-2.81,4.36-6.55,4.36-10.52c0-3.97-1.55-7.71-4.36-10.52C41.32,21.24,41,21.11,40.68,21.11z"/>
		</g>
	</g>
	<g>
		<g>
			<path d="M46.23,49.61c-0.57,0-1.15-0.22-1.58-0.66c-0.87-0.87-0.87-2.29,0-3.17c7.6-7.6,7.6-19.97,0-27.57
				c-0.87-0.87-0.87-2.29,0-3.16c0.87-0.87,2.29-0.87,3.17,0c9.35,9.35,9.35,24.56,0,33.9C47.37,49.39,46.8,49.61,46.23,49.61z"/>
			<path d="M46.23,50.61c-0.86,0-1.68-0.34-2.29-0.95c-1.26-1.26-1.26-3.32,0-4.58c7.21-7.21,7.21-18.95,0-26.16
				c-0.61-0.61-0.95-1.42-0.95-2.29c0-0.86,0.34-1.68,0.95-2.29c1.26-1.26,3.32-1.26,4.58,0c9.74,9.74,9.74,25.58,0,35.32
				C47.9,50.27,47.09,50.61,46.23,50.61z M46.23,15.39c-0.32,0-0.63,0.12-0.88,0.36c-0.23,0.23-0.36,0.54-0.36,0.88
				c0,0.33,0.13,0.64,0.36,0.88c7.99,7.99,7.99,21,0,28.99c-0.48,0.48-0.48,1.27,0,1.75c0.47,0.47,1.28,0.47,1.75,0
				c8.96-8.96,8.96-23.53,0-32.49C46.86,15.51,46.54,15.39,46.23,15.39z"/>
		</g>
	</g>
	<g>
		<g>
			<path d="M52.72,53.65c-0.57,0-1.15-0.22-1.58-0.66c-0.87-0.87-0.87-2.29,0-3.17c4.77-4.77,7.39-11.1,7.39-17.83
				c0-6.73-2.62-13.06-7.39-17.83c-0.87-0.87-0.87-2.29,0-3.16c0.87-0.87,2.29-0.87,3.17,0C59.91,16.62,63,24.07,63,32
				c0,7.93-3.09,15.38-8.7,20.99C53.86,53.43,53.29,53.65,52.72,53.65z"/>
			<path d="M52.72,54.65c-0.86,0-1.68-0.34-2.29-0.95c-1.26-1.26-1.26-3.32,0-4.58c4.58-4.58,7.1-10.66,7.1-17.12
				c0-6.46-2.52-12.54-7.1-17.12c-1.26-1.26-1.26-3.32,0-4.58c1.26-1.26,3.32-1.26,4.58,0c5.8,5.8,9,13.51,9,21.7s-3.19,15.9-9,21.7
				C54.39,54.31,53.58,54.65,52.72,54.65z M52.72,11.35c-0.32,0-0.63,0.12-0.88,0.36c-0.48,0.48-0.48,1.27,0,1.75
				C56.79,18.42,59.52,25,59.52,32c0,7-2.73,13.58-7.68,18.54c-0.48,0.48-0.48,1.27,0,1.75c0.47,0.47,1.28,0.47,1.75,0
				C59.01,46.86,62,39.66,62,32s-2.99-14.86-8.41-20.29C53.35,11.47,53.03,11.35,52.72,11.35z"/>
		</g>
	</g>
</g>
</svg>
